<svg width="167" height="148" viewBox="0 0 167 148" fill="none" xmlns="http://www.w3.org/2000/svg">
<path d="M114.699 19.953L103.565 13.5327L103.541 26.4253L114.699 32.8643L114.715 32.8549V19.9449L114.699 19.953Z" fill="url(#paint0_linear_603_4256)"/>
<path d="M125.901 13.491V13.5084L114.735 19.9767L114.738 32.8747L125.901 26.4197L125.923 13.5043L125.901 13.491Z" fill="url(#paint1_linear_603_4256)"/>
<path d="M125.9 13.4951V13.4777L114.763 7.05078L103.583 13.5272V13.5446L114.721 19.9715L125.9 13.4951Z" fill="url(#paint2_linear_603_4256)"/>
<path d="M125.924 13.6528V13.4816L125.777 13.4014L114.719 19.8136L103.707 13.4508L103.564 13.5324V13.6728L114.584 20.0489L114.587 32.7998L114.731 32.8801L114.874 32.7971L114.856 20.0489L125.924 13.6528Z" fill="white"/>
<path d="M114.69 19.9488L99.9806 11.4612L99.9512 28.4953L114.69 37.0004L114.709 36.9883V19.9368L114.69 19.9488Z" fill="url(#paint3_linear_603_4256)"/>
<path d="M129.484 11.4131V11.4372L114.737 19.9796V37.0312L129.484 28.4887L129.513 11.4305L129.484 11.4131Z" fill="url(#paint4_linear_603_4256)"/>
<path d="M129.483 11.4184V11.3943L114.774 2.90796L100.007 11.4611V11.4839L114.717 19.9715L129.483 11.4184Z" fill="url(#paint5_linear_603_4256)"/>
<path d="M121.158 23.871C121.044 23.7975 121.2 23.4993 121.34 23.5715L144.365 37.5059C144.448 37.5553 144.475 37.6636 144.424 37.7466C144.375 37.8295 144.266 37.8562 144.183 37.8054L121.158 23.871Z" fill="url(#paint6_linear_603_4256)"/>
<path d="M31.5211 17.4229L16.8902 8.75773L16.8502 25.8037L31.5052 34.4876L31.5199 34.4782L31.5358 17.4149L31.5211 17.4229Z" fill="url(#paint7_linear_603_4256)"/>
<path d="M42.7223 10.9609V10.9783L31.5562 17.4467L31.5588 30.3447L42.7223 23.8897L42.7437 10.9743L42.7223 10.9609Z" fill="url(#paint8_linear_603_4256)"/>
<path d="M42.7209 10.9651V10.9477L31.5842 4.52075L20.4033 10.9972V11.0145L31.54 17.4415L42.7209 10.9651Z" fill="url(#paint9_linear_603_4256)"/>
<path d="M42.745 11.1227V10.9516L42.5978 10.8713L31.5401 17.2835L20.5278 10.9208L20.3846 11.0024V11.1428L31.4049 17.5202L31.4076 30.2698L31.5521 30.35L31.6953 30.2671L31.6765 17.5189L42.745 11.1227Z" fill="white"/>
<path d="M31.5093 34.5479L16.7036 26.0054L16.7331 8.81616L31.5093 17.3426L31.5962 17.2918V34.4984L31.5093 34.5479ZM16.8388 25.9279L31.4624 34.3661V17.4683L16.8669 9.04617L16.8388 25.9279Z" fill="url(#paint10_linear_603_4256)"/>
<path d="M46.3043 8.88306V8.90713L31.5575 17.4496V34.5012L46.3043 25.9587L46.3337 8.90044L46.3043 8.88306Z" fill="url(#paint11_linear_603_4256)"/>
<path d="M46.3042 8.88832V8.86425L31.5949 0.37793L16.8267 8.93111V8.95385L31.536 17.4415L46.3042 8.88832Z" fill="url(#paint12_linear_603_4256)"/>
<path d="M37.9788 21.341C37.8651 21.2675 38.0203 20.9692 38.1608 21.0415L61.1861 34.9758C61.2691 35.0253 61.2959 35.1336 61.245 35.2165C61.1955 35.2994 61.0871 35.3262 61.0042 35.2754L37.9788 21.341Z" fill="url(#paint13_linear_603_4256)"/>
<path d="M150.02 44.9106L139.496 38.842L139.474 51.0273L150.02 57.1132L150.035 57.1051V44.9026L150.02 44.9106Z" fill="url(#paint14_linear_603_4256)"/>
<path d="M164.013 36.8997V36.917L150.054 44.9317L150.076 60.9469L164.033 52.9429V36.9117L164.013 36.8997Z" fill="url(#paint15_linear_603_4256)"/>
<path d="M160.607 38.8056V38.7882L150.08 32.7144L139.512 38.8364V38.8524L150.039 44.9263L160.607 38.8056Z" fill="url(#paint16_linear_603_4256)"/>
<path d="M160.63 38.954V38.7922L160.49 38.7173L150.039 44.7778L139.63 38.7641L139.494 38.8417L139.495 38.974L149.91 45.0011L149.913 57.0526L150.05 57.1288L150.186 57.0499L150.169 45.0011L160.63 38.954Z" fill="white"/>
<path d="M150.011 44.9049L136.107 36.8826L136.08 52.9846L150.011 61.023L150.029 61.0109V44.8942L150.011 44.9049Z" fill="url(#paint17_linear_603_4256)"/>
<path d="M149.988 61.1675V44.8956L150.021 44.8769L163.928 36.8211V36.7222L164.09 36.8158V36.8546L164.062 53.0168L164.028 53.0355L149.988 61.1675ZM150.122 44.9731V60.9361L163.928 52.9393L163.955 36.9602L150.122 44.9731Z" fill="url(#paint18_linear_603_4256)"/>
<path d="M163.993 36.8426V36.8199L150.09 28.7976L136.132 36.8827V36.9055L150.036 44.9278L163.993 36.8426Z" fill="url(#paint19_linear_603_4256)"/>
<path d="M160.212 53.4488C160.212 53.4488 161.415 52.9406 161.416 50.5576C160.61 50.1872 160.951 51.3921 160.116 51.9149C159.281 52.4378 157.517 52.2212 157.901 53.6373C157.821 54.7874 159.958 53.763 160.212 53.4488Z" fill="#D47E66"/>
<path d="M137.09 54.8381C137.09 54.8381 136.199 54.6896 136.198 52.308C137.005 51.9375 137.03 53.3256 137.03 53.3256C137.03 53.3256 139.783 53.6118 139.399 55.028C138.26 54.6669 137.09 54.8381 137.09 54.8381Z" fill="#D47E66"/>
<path d="M146.777 71.403C150.927 73.3982 148.206 79.0549 145.249 78.3421C145.249 78.3421 137.357 71.1316 135.855 67.3872C135.111 65.5297 136.174 55.769 136.174 55.769C136.155 55.2809 136.165 55.0028 136.848 54.7219C136.848 54.7219 139.669 54.7219 140.133 54.8824C140.596 55.0429 140.734 55.5082 140.671 55.9923L140.913 65.4188L146.777 71.403Z" fill="#3B5FC7"/>
<path d="M157.675 91.6692C158.916 103.373 161.732 120.076 161.732 128.863L158.15 129.003C156.082 118.346 151.028 105.233 147.681 91.6692H157.675Z" fill="#282554"/>
<path d="M143.267 90.4497C140.877 102.449 142.548 115.635 142.401 129.648C144.725 130.132 146.334 130.157 146.255 128.967C148.511 116.334 149.023 103.901 153.26 91.6693L143.267 90.4497Z" fill="#282554"/>
<path d="M158.132 93.6712C157.543 94.7718 145.578 95.5755 142.459 93.7046C142.449 93.5696 142.506 93.4345 142.574 93.2954C142.674 93.0948 142.801 92.8862 142.792 92.6589C141.937 91.8217 142.718 90.1836 142.742 87.596C142.792 82.2322 144.285 74.0173 145.274 72.6212C153.511 71.4511 156.859 74.3088 156.859 74.3088C157.048 83.6697 159.376 91.1839 157.764 92.2764L158.132 93.6712Z" fill="#3B5FC7"/>
<path d="M140.326 128.61L141.355 128.296C142.035 126.96 144.932 127.126 144.529 128.75C145.666 128.92 146.264 128.353 146.264 128.353C146.771 129.324 146.805 130.361 146.604 131.428H140.465L140.326 128.61Z" fill="#48C6C6"/>
<path d="M163.968 128.61L162.939 128.296C162.259 126.96 159.363 127.126 159.765 128.75C158.628 128.92 158.03 128.353 158.03 128.353C157.568 129.196 157.588 130.291 157.69 131.428H163.829L163.968 128.61Z" fill="#48C6C6"/>
<path d="M143.569 131.429C143.569 131.416 143.571 131.401 143.571 131.388C143.571 129.824 142.304 128.558 140.739 128.558C139.175 128.558 137.908 129.824 137.908 131.388C137.908 131.401 137.909 131.416 137.909 131.429H143.569Z" fill="#54E8E8"/>
<path d="M160.726 131.429C160.726 131.416 160.725 131.401 160.725 131.388C160.725 129.824 161.992 128.558 163.556 128.558C165.12 128.558 166.387 129.824 166.387 131.388C166.387 131.401 166.386 131.416 166.386 131.429H160.726Z" fill="#54E8E8"/>
<path d="M155.849 79.4668C153.325 80.9913 151.294 75.9056 152.678 72.648L156.426 65.0416C156.426 65.0416 157.45 55.2207 157.381 54.8088C157.311 54.3969 157.012 54.0894 157.711 54.0185C158.411 53.9476 160.309 53.612 160.309 53.612C160.309 53.612 160.769 53.5745 160.923 54.2191C161.521 56.7305 161.901 64.9333 161.71 66.0245C160.999 70.0644 157.536 78.29 155.849 79.4668Z" fill="#3B5FC7"/>
<path d="M148.041 72.9703C148.041 72.9703 147.178 73.3207 147.151 74.4788C147.125 75.6368 149.145 76.4713 150.601 75.9056C152.057 75.34 153.808 74.3972 153.296 72.4581C152.783 70.5191 148.041 72.9703 148.041 72.9703Z" fill="#314FA6"/>
<path d="M147.911 73.8891L147.883 73.6471L147.547 70.7292L147.264 68.2552L150.632 67.1453L152.534 72.5946C152.87 74.7476 147.728 75.8148 147.911 73.8891Z" fill="#D47E66"/>
<path d="M151.511 69.7849C150.914 71.4726 150.256 73.1041 147.838 73.1843L147.547 70.7291C149.191 69.3971 151.511 69.7849 151.511 69.7849Z" fill="#B3614B"/>
<path d="M145.027 65.9659C143.608 67.2951 144.347 71.1077 146.541 71.878C148.736 72.6482 151.59 71.0863 152.489 68.5281C153.388 65.9712 152.338 63.274 150.143 62.5024C147.949 61.7308 145.283 62.9209 145.027 65.9659Z" fill="#D47E66"/>
<path d="M152.165 65.5165C152.165 65.5165 150.65 65.8815 147.585 65.0404C141.355 63.3314 144.853 61.4164 147.328 61.3228C148.279 61.2867 153.078 60.7999 152.913 64.6218C154.964 66.3737 153.422 68.3943 152.417 69.1472C151.73 67.8527 152.165 65.5165 152.165 65.5165Z" fill="#FD9E4E"/>
<path d="M152.918 70.4246C153.347 70.053 153.393 69.4044 153.021 68.9759C152.649 68.5474 152 68.5014 151.571 68.873C151.143 69.2446 151.096 69.8932 151.468 70.3217C151.84 70.7502 152.489 70.7963 152.918 70.4246Z" fill="#D47E66"/>
<path d="M152.042 66.696C152.042 66.696 152.067 68.4626 151.627 69.1646C152.391 68.6966 152.847 68.8424 152.854 68.8357C152.862 68.829 153.69 67.0223 152.042 66.696Z" fill="#FD9E4E"/>
<path d="M151.393 93.7781C148.528 93.9761 142.716 92.7993 142.575 93.2954C142.676 93.0948 142.803 92.8862 142.793 92.6589C141.938 91.8217 142.72 90.1836 142.744 87.5959C142.875 89.868 142.249 92.2135 143.829 92.4395C146.65 92.8434 153.688 93.048 154.54 93.0199C155.393 92.9905 155.406 93.5013 151.393 93.7781Z" fill="#314FA6"/>
<path d="M59.8816 66.5554C59.804 70.3893 62.539 75.5833 64.059 78.7727L69.9251 77.1693C68.2418 73.8716 65.1629 66.8523 64.0858 65.1727C62.0573 61.8709 59.6153 64.5 59.8816 66.5554Z" fill="#FFA88F"/>
<path d="M70.6182 77.7764C70.0455 75.2156 66.9626 70.499 66.9626 70.499L61.1006 73.3889L65.0091 80.8094C66.6014 83.3368 70.5379 82.4422 70.6182 77.7764Z" fill="#34508F"/>
<path d="M64.0364 64.9787C63.932 63.7819 61.949 54.0653 61.949 54.0653L60.1573 53.4648C60.1573 53.4648 59.1431 63.2349 59.9178 67.1572C60.4504 69.8464 64.1983 66.8389 64.0364 64.9787Z" fill="#FFA88F"/>
<path d="M62.3156 53.0838L62.2634 49.8142C62.2634 49.8142 62.0051 49.7139 61.882 49.9104C61.7603 50.107 61.8272 50.7048 61.8272 50.7048C61.8272 50.7048 61.7656 51.5673 61.5408 51.447C61.316 51.3253 60.6497 48.7136 60.3567 48.8821C60.0636 49.0506 60.7634 51.1768 60.7634 51.1768C60.7634 51.1768 59.7037 48.9449 59.5016 49.1067C59.2996 49.2686 60.168 51.5205 60.168 51.5205C60.168 51.5205 58.8406 49.8115 58.7041 49.8971C58.5677 49.9827 59.6609 51.8201 59.6609 51.8201C59.6609 51.8201 58.7255 50.7329 58.6091 50.8265C58.4927 50.9201 60.263 53.8099 60.263 53.8099C61.0912 54.9573 62.3169 54.2659 62.3156 53.0838Z" fill="#FFA88F"/>
<path d="M69.794 40.6168L58.6599 34.1965L58.6359 47.0878L69.794 53.5268L69.8087 53.5188V40.6074L69.794 40.6168Z" fill="url(#paint20_linear_603_4256)"/>
<path d="M80.9962 34.1548V34.1722L69.8301 40.6392L69.8328 53.5372L80.9962 47.0822L81.0176 34.1668L80.9962 34.1548Z" fill="url(#paint21_linear_603_4256)"/>
<path d="M80.9949 34.1576V34.1402L69.8582 27.7146L58.6774 34.191V34.2084L69.8141 40.634L80.9949 34.1576Z" fill="url(#paint22_linear_603_4256)"/>
<path d="M81.0189 34.3154V34.1442L80.8704 34.064L69.814 40.4775L58.8017 34.1148L58.6572 34.1964L58.6586 34.3368L69.6775 40.7129L69.6815 53.4638L69.8247 53.5427L69.9692 53.4597L69.9505 40.7129L81.0189 34.3154Z" fill="white"/>
<path d="M69.7833 40.6114L55.074 32.1238L55.0459 49.1593L69.7833 57.663L69.8034 57.6523V40.6007L69.7833 40.6114Z" fill="url(#paint23_linear_603_4256)"/>
<path d="M84.5783 32.0767V32.0994L69.8315 40.6419V57.6934L84.5783 49.1509L84.6078 32.094L84.5783 32.0767Z" fill="url(#paint24_linear_603_4256)"/>
<path d="M84.5769 32.0807V32.058L69.8676 23.5703L55.1007 32.1248V32.1476L69.81 40.6352L84.5769 32.0807Z" fill="url(#paint25_linear_603_4256)"/>
<path d="M63.0676 130.218L63.1814 134.371H66.6014L66.8383 130.241L63.0676 130.218Z" fill="#FFA88F"/>
<path d="M78.0004 130.117L78.7724 134.272H82.5391L81.9878 130.143L78.0004 130.117Z" fill="#FFA88F"/>
<path d="M63.4516 93.1165C62.7492 97.5749 62.23 115.536 63.0676 129.707L67.0831 129.732L72.0969 93.1178H63.4516V93.1165Z" fill="#267FBF"/>
<path d="M82.0855 130.347L78.64 93.2783H69.608L77.7167 130.347H82.0855Z" fill="#267FBF"/>
<path d="M68.4359 100.244C68.4359 100.244 70.6919 100.724 73.5246 99.9084C70.7869 101.743 68.4359 100.244 68.4359 100.244Z" fill="#185078"/>
<path d="M62.7156 132.091C62.3905 132.827 61.5609 133.108 59.9071 133.391C58.1261 133.256 57.2858 135.211 58.1769 136.029C62.4868 136.029 66.9787 136.029 66.9787 136.029C67.1152 135.433 66.9921 133.709 66.8998 132.86C66.1317 133.364 65.3262 133.271 64.4926 132.952C65.1068 131.449 62.8441 131.203 62.7156 132.091Z" fill="#195580"/>
<path d="M59.9071 133.391C59.9071 133.391 61.399 133.493 61.5007 135.152C62.428 135.152 67.2477 135.152 67.2477 135.152V136.149H57.8184C57.8184 136.149 57.5923 135.255 57.9509 134.284C58.3081 133.314 59.7813 133.372 59.9071 133.391Z" fill="#5DADE8"/>
<path d="M63.3714 133.115C63.342 133.18 63.2657 133.208 63.2028 133.178L61.9089 132.585C61.8447 132.555 61.8166 132.479 61.846 132.416C61.8755 132.352 61.9517 132.324 62.0146 132.353L63.3085 132.947C63.3728 132.975 63.4009 133.051 63.3714 133.115Z" fill="#F2F2F2"/>
<path d="M62.8615 133.459C62.8321 133.523 62.7558 133.552 62.6929 133.522L61.399 132.928C61.3348 132.899 61.3067 132.823 61.3361 132.76C61.3656 132.696 61.4419 132.668 61.5047 132.697L62.7987 133.291C62.8629 133.32 62.891 133.396 62.8615 133.459Z" fill="#F2F2F2"/>
<path d="M62.2474 133.712C62.218 133.776 62.1417 133.804 62.0788 133.775L60.7849 133.181C60.7207 133.152 60.6926 133.075 60.722 133.013C60.7514 132.948 60.8277 132.92 60.8906 132.95L62.1845 133.543C62.2487 133.572 62.2768 133.648 62.2474 133.712Z" fill="#F2F2F2"/>
<path d="M84.3763 133.211C83.3607 132.974 82.9392 132.583 82.6863 132.01C82.5578 131.122 79.8938 131.502 80.5079 133.005C79.6743 133.323 79.2716 133.283 78.5035 132.779C78.4112 133.628 78.2881 135.352 78.4246 135.948C78.4246 135.948 81.2211 135.948 84.5168 135.948L84.3763 133.211Z" fill="#195580"/>
<path d="M83.6109 133.281C83.6109 133.281 81.8433 133.413 81.7403 135.072C80.813 135.072 78.1516 135.072 78.1516 135.072V136.068H86.2148C86.7313 134.403 84.8834 132.78 83.6109 133.281Z" fill="#5DADE8"/>
<path d="M82.2863 133.315C82.301 133.383 82.3692 133.427 82.4375 133.412C82.8041 133.122 83.2791 133.043 83.8277 133.11C83.896 133.095 83.9401 133.027 83.9254 132.959C83.9107 132.891 83.8424 132.847 83.7742 132.861C83.2738 132.829 82.8041 132.904 82.384 133.164C82.3157 133.178 82.2716 133.247 82.2863 133.315Z" fill="#F2F2F2"/>
<path d="M81.7376 132.984C81.7523 133.053 81.8205 133.097 81.8888 133.082C82.2554 132.792 82.7304 132.713 83.279 132.78C83.3473 132.765 83.3914 132.697 83.3767 132.629C83.362 132.561 83.2937 132.516 83.2255 132.531C82.7251 132.499 82.2554 132.574 81.8352 132.833C81.767 132.848 81.7229 132.916 81.7376 132.984Z" fill="#F2F2F2"/>
<path d="M81.2667 132.656C81.2814 132.724 81.3496 132.768 81.4179 132.753C81.7845 132.463 82.2595 132.384 82.8081 132.451C82.8764 132.436 82.9205 132.368 82.9058 132.3C82.8911 132.232 82.8229 132.188 82.7546 132.202C82.2542 132.17 81.7845 132.245 81.3644 132.505C81.2948 132.519 81.252 132.587 81.2667 132.656Z" fill="#F2F2F2"/>
<path d="M62.7772 129.484C62.7759 129.463 67.419 129.484 67.419 129.484V130.48L62.7772 130.579V129.484Z" fill="#5DADE8"/>
<path d="M77.4103 130.036C77.4089 130.016 82.2835 130.036 82.2835 130.036L82.3879 131.082L77.5147 131.18L77.4103 130.036Z" fill="#5DADE8"/>
<path d="M62.9633 96.5732C65.3932 98.2207 75.9492 98.5898 79.6931 96.8901C79.6569 96.4287 79.6208 95.9794 79.586 95.5395C78.9237 87.3166 78.4232 82.493 77.4545 74.6861C73.1205 72.3244 67.5769 72.7296 65.7464 74.2983L63.1158 95.3509L62.9633 96.5732Z" fill="#34508F"/>
<path d="M69.1437 73.2486C68.3127 73.4104 67.1781 74.1499 68.211 75.8268C69.244 77.5038 75.2198 77.3232 75.4754 75.3441C75.7309 73.3649 69.9746 73.0868 69.1437 73.2486Z" fill="#5582E8"/>
<path d="M69.0059 74.2448L69.1597 73.5882L69.7137 71.236L70.4429 68.1282L74.3688 68.2338L74.5013 74.7704C74.0463 77.1414 68.092 76.1839 69.0059 74.2448Z" fill="#FFA88F"/>
<path opacity="0.5" d="M73.3907 71.7522C73.3907 71.7522 71.6914 73.2205 69.1584 73.5896L69.7124 71.2373L73.3907 71.7522Z" fill="#0D0D0D"/>
<path d="M68.3783 65.3748C67.1018 67.1935 66.663 70.1984 68.7865 71.7055C70.91 73.2126 74.1133 72.1909 75.8715 69.717C77.6311 67.2417 77.334 64.0135 75.2105 62.5064C73.087 60.9993 69.596 62.1761 68.3783 65.3748Z" fill="#FFA88F"/>
<path d="M68.6245 64.8145C68.6245 64.8145 69.1464 62.8554 71.7315 63.1549C71.3515 63.7219 70.4751 64.083 69.5317 64.4173C69.5317 64.4173 71.7623 65.1087 73.4482 64.3197C73.2074 64.9856 72.2627 65.4524 72.2627 65.4524C72.2627 65.4524 73.855 66.1892 74.8385 65.5486C74.5428 66.9528 75.4259 68.9921 74.6003 71.0716C77.3286 69.5631 78.4539 69.0536 79.0801 67.1387C79.978 64.3932 77.251 61.5248 74.6298 60.6582C69.8984 58.9158 67.716 61.7 68.6245 64.8145Z" fill="#C2593C"/>
<path d="M75.838 69.4672C76.2032 69.132 76.2274 68.5644 75.892 68.1994C75.5566 67.8344 74.9886 67.8103 74.6234 68.1455C74.2582 68.4807 74.2341 69.0483 74.5695 69.4133C74.9049 69.7783 75.4728 69.8024 75.838 69.4672Z" fill="#FFA88F"/>
<path d="M81.403 66.1048C82.1684 69.8638 79.8027 75.34 78.8808 78.7514L73.7225 78.2659C74.7863 74.7208 76.5137 68.0759 77.0195 65.4977C78.4218 61.8857 81.2973 64.0347 81.403 66.1048Z" fill="#FFA88F"/>
<path d="M72.6133 79.1899C72.7163 76.5676 73.7493 73.6416 74.694 71.2292C76.3063 70.7571 81.387 71.9419 81.4311 72.0182L78.7001 82.0263C77.5869 84.7971 73.5312 83.7661 72.6133 79.1899Z" fill="#34508F"/>
<path d="M77.0329 65.2984C76.9205 64.1016 77.1266 54.1884 77.1266 54.1884L78.7804 53.2764C78.7804 53.2764 81.5328 62.7068 81.4753 66.7039C81.4352 69.4426 77.2082 67.1572 77.0329 65.2984Z" fill="#FFA88F"/>
<path d="M62.9633 96.5733C65.3932 98.2209 75.9492 98.5899 79.6931 96.8903C79.6569 96.4289 79.6208 95.9796 79.586 95.5396C78.1449 96.0317 74.3207 97.2139 71.298 97.0387C68.2807 96.8635 64.5341 95.787 63.1158 95.3511L62.9633 96.5733Z" fill="#5582E8"/>
<path d="M79.0147 54.0908C79.6369 53.0932 80.2417 52.3337 80.8264 51.8349C80.8264 51.8349 81.0097 51.7225 80.7943 51.6356C80.4156 51.4818 80.0396 51.8121 80.0396 51.8121C80.0396 51.8121 79.4749 52.5463 79.3666 52.3149C79.2582 52.0836 80.2791 49.5896 79.9433 49.5508C79.6074 49.512 78.9036 51.637 78.9036 51.637C78.9036 51.637 79.3826 49.2125 79.123 49.2232C78.8648 49.2325 78.2198 51.5594 78.2198 51.5594C78.2198 51.5594 78.1717 49.397 78.0111 49.3836C77.8505 49.3716 77.6338 51.4979 77.6338 51.4979C77.6338 51.4979 77.5307 50.0683 77.3809 50.0737C77.231 50.079 76.9313 53.4556 76.9313 53.4556C76.9152 54.8691 78.3122 55.0416 79.0147 54.0908Z" fill="#FFA88F"/>
<path d="M75.5517 44.4826C75.4379 44.4091 75.5932 44.1108 75.7337 44.1831L98.759 58.1174C98.842 58.1669 98.8687 58.2752 98.8179 58.3581C98.7684 58.441 98.66 58.4678 98.577 58.417L75.5517 44.4826Z" fill="url(#paint26_linear_603_4256)"/>
<path d="M64.1059 44.1603C64.2236 44.0934 64.4163 44.3676 64.2878 44.4598L41.2879 58.4357C41.2049 58.4865 41.0979 58.4597 41.047 58.3768C40.9962 58.2939 41.0229 58.1869 41.1059 58.1361L64.1059 44.1603Z" fill="url(#paint27_linear_603_4256)"/>
<path d="M23.2936 66.1437L21.8578 65.7693C21.5394 66.462 20.9024 67.5037 20.3418 68.7247L22.6566 69.5498C22.9443 68.1764 23.1664 66.9595 23.2936 66.1437Z" fill="#BF5F45"/>
<path d="M20.5305 68.2205L16.4373 75.2237L10.4923 81.2361C6.3791 85.2546 11.8879 91.5278 15.5997 86.3418L19.5108 78.7394C19.5108 78.7394 22.5656 72.4716 22.765 69.2194L20.5305 68.2205Z" fill="#7364CA"/>
<path d="M21.7534 65.8026L22.848 62.7215C22.848 62.7215 23.1249 62.7082 23.1785 62.9342C23.2307 63.1602 22.9764 63.7044 22.9764 63.7044C22.9764 63.7044 22.7583 64.5416 23.0112 64.4988C23.2641 64.456 24.7293 62.1933 24.9527 62.4474C25.1762 62.7001 23.8328 64.4907 23.8328 64.4907C23.8328 64.4907 25.5508 62.7135 25.69 62.9315C25.8292 63.1495 24.2864 65.0056 24.2864 65.0056C24.2864 65.0056 26.0914 63.8101 26.1931 63.9344C26.2948 64.0588 24.6717 65.4509 24.6717 65.4509C24.6717 65.4509 25.9054 64.7194 25.9857 64.8451C26.066 64.9708 23.4648 67.1439 23.4648 67.1439C22.3141 67.9703 21.3748 66.9232 21.7534 65.8026Z" fill="#BF5F45"/>
<path d="M32.5194 61.0062L21.3854 54.5859L21.3613 67.4772L32.5194 73.9162L32.5341 73.9082V60.9982L32.5194 61.0062Z" fill="url(#paint28_linear_603_4256)"/>
<path d="M43.7217 54.5442V54.5616L32.5555 61.03L32.5582 73.9279L43.7217 67.4716L43.7431 54.5562L43.7217 54.5442Z" fill="url(#paint29_linear_603_4256)"/>
<path d="M43.7204 54.547V54.5296L32.5837 48.104L21.4028 54.5804V54.5978L32.5395 61.0234L43.7204 54.547Z" fill="url(#paint30_linear_603_4256)"/>
<path d="M43.7444 54.7061V54.5336L43.5972 54.4534L32.5395 60.8669L21.5272 54.5042L21.384 54.5858V54.7262L32.4043 61.1023L32.407 73.8532L32.5515 73.9321L32.6947 73.8491L32.6759 61.1023L43.7444 54.7061Z" fill="white"/>
<path d="M32.5101 61.0008L17.8008 52.5132L17.7714 69.5487L32.5101 78.0524L32.5289 78.0417V60.9901L32.5101 61.0008Z" fill="url(#paint31_linear_603_4256)"/>
<path d="M47.3038 52.4661V52.4888L32.557 61.0313V78.0842L47.3038 69.5403L47.3332 52.4834L47.3038 52.4661Z" fill="url(#paint32_linear_603_4256)"/>
<path d="M47.3037 52.4701V52.4474L32.5944 43.9597L17.8275 52.5142V52.537L32.5368 61.0246L47.3037 52.4701Z" fill="url(#paint33_linear_603_4256)"/>
<path d="M17.1452 80.4807L17.4155 83.8774L17.469 84.5072C17.56 85.3002 12.5583 86.6241 12.6145 85.6412L12.6921 84.9057L13.0908 81.1012L17.1452 80.4807Z" fill="#BF5F45"/>
<path d="M25.3421 143.546C25.6485 143.221 27.0963 143.216 27.2288 143.696C27.3612 144.176 27.1057 144.52 27.7172 145.281C27.3653 145.382 26.1195 145.392 25.7368 145.281C25.3555 145.171 25.0357 143.871 25.3421 143.546Z" fill="#48C6C6"/>
<path d="M26.129 145.667H23.3311C23.2321 144.622 23.0969 143.635 22.935 142.684C22.0318 137.327 20.3633 133.057 20.3285 125.154C19.6153 122.601 19.0734 120.374 18.6639 118.428C16.8161 109.665 17.6564 106.567 17.8009 104.834C18.225 101.016 24.2129 99.7186 25.4867 103.931C26.1169 106.017 26.2133 107.776 26.2467 111.249C26.3404 120.952 26.3912 133.834 26.129 145.667Z" fill="#34508F"/>
<path d="M28.4532 145.414C27.934 145.386 26.7204 144.886 26.4916 144.541C26.1544 144.918 25.4519 145.023 24.6049 144.896C23.6041 144.746 23.4716 144.282 22.7544 144.343C22.452 145.184 21.7147 147.071 22.4252 147.51C22.4252 147.51 26.6308 147.51 29.8408 147.51C30.5031 146.907 30.4857 145.618 28.4532 145.414Z" fill="#48C6C6"/>
<path d="M10.3519 143.639C10.6302 143.345 11.9428 143.339 12.0632 143.775C12.1837 144.211 11.9522 144.521 12.5061 145.213C12.1877 145.305 11.057 145.313 10.7105 145.213C10.3626 145.112 10.0735 143.934 10.3519 143.639Z" fill="#48C6C6"/>
<path d="M19.9029 111.959C19.6032 113.895 19.1536 115.968 18.6023 118.14C16.6969 125.658 13.5873 134.35 11.3433 142.553C11.0637 143.574 10.7974 144.589 10.5485 145.592C10.3425 146.424 7.69711 146.199 7.79746 145.266C8.29254 139.623 8.41565 127.562 11.4945 121.752C10.5606 108.948 11.164 106.67 11.35 104.62C11.8665 100.81 19.6326 100.362 20.204 104.725C20.4876 106.886 20.4341 108.525 19.9029 111.959Z" fill="#34508F"/>
<path d="M13.1846 145.004C12.6239 144.974 11.797 144.244 11.5508 143.873C11.1868 144.279 10.4924 144.826 9.57714 144.69C8.49733 144.528 8.35415 144.026 7.57941 144.093C7.25293 145.001 6.45678 147.038 7.22483 147.51C7.22483 147.51 11.5454 147.51 15.0097 147.51C15.7242 146.859 15.379 145.222 13.1846 145.004Z" fill="#48C6C6"/>
<path d="M24.4671 91.0824C24.2757 89.701 20.9828 87.08 18.0872 83.2139C15.8393 82.2698 11.0691 83.5442 10.9941 86.0088C12.1208 89.4697 12.8179 91.5718 12.6038 98.3812C11.1815 101.818 10.9272 103.833 10.574 107.151C10.574 107.151 11.9348 108.737 16.8241 108.57C19.4293 108.48 24.4109 108.332 26.1169 106.953C25.7369 103.206 24.2811 99.5941 23.7954 96.4155C23.7967 96.4155 24.6584 92.4638 24.4671 91.0824Z" fill="#937FFF"/>
<path d="M23.1143 88.4549C23.5572 91.8609 22.2365 93.8588 22.2512 97.5563C22.2673 101.358 23.3618 105.295 23.1799 109.271C18.8593 111.933 8.73547 110.014 7.62622 108.767C11.7301 99.9153 11.7996 88.3599 11.7996 88.3599C12.6105 80.7254 21.1821 81.8207 23.1143 88.4549Z" fill="#7364CA"/>
<path d="M18.0217 74.5565C20.2455 77.5065 20.6363 80.5595 17.7286 81.7189C15.3081 82.6845 12.0901 82.9412 9.84211 79.2597C8.40904 76.9141 9.19047 73.8946 11.4505 72.5961C13.7078 71.2976 16.0547 71.9488 18.0217 74.5565Z" fill="#BF5F45"/>
<path d="M18.6787 75.6665C18.6787 75.6665 20.0556 75.7708 19.7839 76.5036C19.5123 77.2378 18.9249 77.1469 18.9249 77.1469L18.6787 75.6665Z" fill="#BF5F45"/>
<path d="M18.6023 118.139C16.6969 125.658 13.5873 134.35 11.3433 142.553C11.239 142.166 11.1078 141.619 11.1399 140.87C11.3313 136.288 15.6305 129.763 15.7964 125.244C15.6773 120.303 18.2798 116.556 18.2798 116.556L18.6023 118.139Z" fill="#456CBF"/>
<path d="M32.7429 71.2654L31.3674 70.7078C30.962 71.3537 30.1952 72.3031 29.4821 73.4425L31.6698 74.5604C32.1328 73.2365 32.5114 72.0571 32.7429 71.2654Z" fill="#BF5F45"/>
<path d="M29.7323 72.9678L24.7681 79.3827L18.0938 84.5753C13.4949 88.0281 18.1447 94.9619 22.4974 90.2988L27.3599 83.2661C27.3599 83.2661 31.2015 77.445 31.8197 74.2462L29.7323 72.9678Z" fill="#7364CA"/>
<path d="M31.259 70.7279L32.7443 67.814C32.7443 67.814 33.0213 67.8367 33.044 68.0681C33.0668 68.2981 32.7443 68.8062 32.7443 68.8062C32.7443 68.8062 32.4205 69.6086 32.676 69.5979C32.9316 69.5885 34.6778 67.5345 34.8664 67.814C35.0551 68.0935 33.4923 69.6955 33.4923 69.6955C33.4923 69.6955 35.4258 68.1563 35.5355 68.3903C35.6452 68.6244 33.8749 70.2665 33.8749 70.2665C33.8749 70.2665 35.8191 69.3144 35.9048 69.4508C35.9904 69.5872 34.2001 70.7573 34.2001 70.7573C34.2001 70.7573 35.5181 70.1917 35.5823 70.3267C35.6465 70.4618 32.7844 72.2805 32.7844 72.2805C31.5347 72.9504 30.7385 71.7897 31.259 70.7279Z" fill="#BF5F45"/>
<path d="M9.33224 71.6065C8.37419 72.7111 5.5268 72.8729 6.41393 78.0762C6.99733 81.5023 0.992103 82.0599 1.95551 87.9078C2.91891 93.7557 0.480963 93.5043 0.392651 97.8197C0.181237 108.018 10.3518 107.844 14.2924 100.11C15.8018 97.147 12.7751 94.9673 17.0475 91.2483C19.9511 88.7209 16.9445 86.8006 19.638 83.4427C21.9582 80.5501 13.2314 79.4737 17.8557 73.9534C18.229 73.5081 20.8744 70.8656 18.3883 68.8437C16.4936 67.3031 11.8184 67.4944 9.33224 71.6065Z" fill="#FD9E4E"/>
<path d="M144.224 48.0396C144.398 47.9473 144.59 48.2228 144.395 48.3445L110.158 67.5758C110.035 67.6453 109.897 67.6319 109.849 67.5477C109.802 67.4634 109.862 67.339 109.985 67.2695L144.224 48.0396Z" fill="url(#paint34_linear_603_4256)"/>
<path d="M116.226 84.3358C116.226 84.3358 109.136 85.1903 107.003 84.7503C105.663 84.4735 99.5258 76.3576 99.5258 76.3576L100.624 75.3921L107.507 80.7519L115.854 79.0682C119.425 78.9733 120.37 83.8343 116.226 84.3358Z" fill="#FFA88F"/>
<path d="M115.039 84.8826C115.039 84.8826 116.004 83.2579 115.643 81.6652C115.281 80.0725 114.22 79.3972 114.22 79.3972C115.358 78.4918 116.49 77.5651 117.725 77.0676C117.725 77.0676 119.9 78.2645 120.442 79.9535C121.505 83.2672 115.039 84.8826 115.039 84.8826Z" fill="#7D6CD9"/>
<path d="M100.624 75.3922C100.624 75.3922 100.333 74.2648 99.1591 73.1843C99.1591 73.1843 98.7563 73.1883 98.8701 73.6029C98.9838 74.0174 99.1912 74.3464 99.1912 74.3464C99.1912 74.3464 95.925 73.1148 95.8634 73.2833C95.8019 73.4518 97.6136 74.42 97.6083 74.531C97.6029 74.642 95.6801 73.7059 95.6226 73.9024C95.565 74.099 97.2068 75.0284 97.2068 75.1301C97.2082 75.2317 95.6186 74.3371 95.5236 74.4775C95.4286 74.6179 96.3438 75.4082 97.0637 75.8054C96.9941 76.1009 95.9263 76.0167 95.8888 76.125C95.8514 76.2346 97.6859 76.7669 99.7719 76.6746C101.857 76.5823 100.624 75.3922 100.624 75.3922Z" fill="#99533F"/>
<path d="M103.774 66.3884L92.909 60.1233L92.8849 72.7043L103.774 78.9882L103.789 78.9788V66.3804L103.774 66.3884Z" fill="url(#paint35_linear_603_4256)"/>
<path d="M114.706 60.0815V60.0989L103.809 66.4108L103.812 78.9986L114.706 72.6987L114.727 60.0949L114.706 60.0815Z" fill="url(#paint36_linear_603_4256)"/>
<path d="M118.263 58.0213V57.9983L103.844 49.6777L89.3676 58.0639V58.0852L103.787 66.4058L118.263 58.0213Z" fill="url(#paint37_linear_603_4256)"/>
<path d="M114.729 60.2395V60.0723L114.584 59.9934L103.794 66.2518L93.0467 60.0429L92.9062 60.1231L92.9076 60.2595L103.662 66.4818L103.664 78.9252L103.805 79.004L103.945 78.9225L103.927 66.4818L114.729 60.2395Z" fill="white"/>
<path d="M103.765 66.3829L89.4086 58.0999L89.3818 74.7248L103.765 83.0239L103.783 83.0132V66.3722L103.765 66.3829Z" fill="url(#paint38_linear_603_4256)"/>
<path d="M118.202 58.0542V58.0769L103.81 66.4135V83.0545L118.202 74.7179L118.23 58.0702L118.202 58.0542Z" fill="url(#paint39_linear_603_4256)"/>
<path d="M103.79 66.483L103.757 66.4643L89.3684 58.1625V58.0635L89.4019 58.0448L103.846 49.6775L103.88 49.6962L118.268 57.998V58.0983L118.234 58.117L103.79 66.483ZM89.5491 58.1117L103.789 66.3292L118.086 58.0475L103.845 49.8299L89.5491 58.1117Z" fill="url(#paint40_linear_603_4256)"/>
<path d="M132.149 87.4796C132.149 87.4796 132.639 88.2058 133.478 87.8795C134.725 88.29 135.062 87.0022 135.062 87.0022C135.062 87.0022 136.68 87.3446 136.768 86.0568C137.825 85.5406 138.004 84.6847 137.758 84.0295C138.402 83.191 137.584 81.7173 137.584 81.7173C137.584 81.7173 138.827 80.8575 137.941 79.7315C138.351 78.3648 136.725 77.2749 136.725 77.2749C136.725 77.2749 137.09 76.0406 136.073 75.5726C135.818 74.2701 135.141 73.6803 133.627 74.1056C132.427 72.4661 131.128 73.4597 131.128 73.4597C131.128 73.4597 129.842 71.6945 128.678 72.8552C126.695 72.7496 126.564 74.3008 126.564 74.3008C126.564 74.3008 125.166 73.9745 124.882 75.3359C123.691 76.1677 123.848 76.9754 124.088 77.4608C123.239 77.6213 123.278 78.8395 123.711 79.2528C123.251 79.8505 123.43 80.6101 123.965 81.141C123.965 81.141 123.813 81.9768 124.396 82.6026C124.367 83.8088 125.716 84.2996 125.716 84.2996C125.716 84.2996 125.716 85.4925 126.363 86.0394C126.785 86.906 127.988 87.4449 127.988 87.4449C127.988 87.4449 128.831 88.4919 129.439 88.2232C130.361 88.6765 131.246 88.2205 131.181 87.9463C131.119 87.6722 132.209 88.1683 132.149 87.4796Z" fill="#FD6A4E"/>
<path d="M128.392 96.4983C129.707 102.594 127.641 113.67 128.58 115.595C130.438 118.836 131.758 126.882 131.159 135.307L128.757 135.601L117.778 96.6387L128.392 96.4983Z" fill="#241F3C"/>
<path d="M122.657 96.7429C122.368 102.952 121.189 108.251 120.126 113.298C119.817 114.764 119.657 116.73 120.086 118.165C121.177 121.811 120.687 129.934 119.028 136.881L116.61 136.781L115.028 116.692L113.65 99.376L122.657 96.7429Z" fill="#241F3C"/>
<path d="M128.259 98.6714C128.259 98.6714 128.364 92.0318 122.514 90.0955C116.664 88.1591 113.963 94.2891 113.21 97.3127C111.963 102.315 128.127 105.75 128.259 98.6714Z" fill="#241F3C"/>
<path d="M116.649 92.3393C118.652 86.942 113.202 83.865 116.231 80.6061C116.476 78.6764 119.969 79.0468 123.365 79.4239C127.054 79.8331 131.361 79.4587 130.067 83.2204C127.737 86.8899 126.48 89.8747 126.738 93.3997C125.544 95.3535 116.958 94.2636 116.649 92.3393Z" fill="#937FFF"/>
<path d="M125.948 77.8419C125.88 77.9048 124.483 78.4664 121.162 77.9235C119.865 76.5688 118.232 76.7935 117.453 77.4167C116.374 78.2792 115.894 80.1821 116.477 83.3328C117.167 87.8527 127.558 86.7936 129.62 83.9399C133.657 78.3501 128.6 75.3626 125.948 77.8419Z" fill="#937FFF"/>
<path d="M120.444 78.9906C120.172 80.1259 120.433 80.6421 120.584 80.8521C120.584 80.8521 124.28 79.0107 126.453 77.4514L128.231 74.0173L123.362 73.9785C123.082 74.4265 122.817 74.8304 122.567 75.2088C122.208 75.7517 121.878 76.2438 121.573 76.74C121.149 77.434 120.774 78.1348 120.444 78.9906Z" fill="#FFA88F"/>
<path d="M121.574 76.7401C122.776 77.184 124.161 77.0209 125.687 76.3897L122.588 75.1848L122.568 75.2102C122.21 75.7532 121.879 76.2453 121.574 76.7401Z" fill="#F58367"/>
<path d="M129.347 140.502L128.662 136.306L126.955 128.641H131.428L131.548 134.132L133.099 136.955L131.091 142.201C131.091 142.201 127.943 142.717 127.692 142.039C127.44 141.362 129.347 140.502 129.347 140.502Z" fill="black"/>
<path d="M133.098 136.94L133.17 141.897L132.68 141.904L130.868 137.427L133.098 136.94Z" fill="black"/>
<path d="M115.759 141.365L116.277 135.739L115.81 129.354H120.429L119.684 134.614L120.386 137.531L117.596 142.962C117.596 142.962 114.123 143.684 113.834 143.02C113.544 142.357 115.759 141.365 115.759 141.365Z" fill="black"/>
<path d="M120.391 137.515L120.746 142.46L120.258 142.495L118.111 137.4L120.391 137.515Z" fill="black"/>
<path d="M121.028 77.6574C121.028 77.6574 117.968 79.5403 117.511 81.8284C117.238 83.1924 117.603 91.2428 117.319 93.6418C117.036 96.0409 116.512 104.23 116.512 104.23C112.506 104.526 109.071 102.555 107.917 102.075C107.917 102.075 113.397 97.7646 115.362 88.6886C115.113 86.8418 114.97 84.8934 115.031 81.8926C115.091 78.9519 117.543 75.9417 120.133 77.1814L121.028 77.6574Z" fill="#7D6CD9"/>
<path d="M126.454 77.4514C126.454 77.4514 128.505 76.0178 130.334 77.9101C132.165 79.8023 130.611 83.5975 130.611 83.5975C130.611 83.5975 129.168 89.0923 129.492 90.5018C129.815 91.91 133.115 98.4412 134.025 104.131C131.774 105.581 123.48 104.94 123.48 104.94C123.48 104.94 121.943 91.1183 123.102 86.1116C123.789 83.1495 124.264 79.1003 126.454 77.4514Z" fill="#7D6CD9"/>
<path d="M121.836 70.3987C121.836 70.3987 121.721 70.0082 121.826 69.5535C121.931 69.0989 122.689 68.7525 122.689 68.7525C122.689 68.7525 122.559 68.3112 123.065 67.6212C123.571 66.9311 124.146 67.1892 124.146 67.1892C124.245 66.7105 124.462 66.1502 125.817 66.3294C126.422 65.5966 127.281 66.3641 127.281 66.3641C127.281 66.3641 127.293 66.3601 127.316 66.3521C127.205 66.6129 127.048 66.8536 126.901 67.097C126.724 67.101 126.334 67.1063 125.749 67.0876C125.492 67.7683 124.388 67.8285 124.388 67.8285C124.388 67.8285 123.869 69.1778 123.418 69.2888C122.896 69.3904 122.93 70.289 122.417 70.7718C121.961 71.871 121.303 72.0917 121.181 71.4846C121.06 70.8761 121.836 70.3987 121.836 70.3987Z" fill="#FD6A4E"/>
<path d="M122.489 69.6966C120.987 71.8804 121.007 74.7595 122.2 75.4709C123.152 76.0553 124.773 76.5127 126.101 76.3736C127.34 76.2439 128.46 75.5151 129.268 74.3342C130.943 71.8897 130.783 68.8688 128.911 67.5877C127.039 66.3079 123.952 66.8709 122.489 69.6966Z" fill="#FFA88F"/>
<path d="M127.329 66.1822C127.725 66.1087 128.388 66.0819 128.856 66.5567C129.742 66.5192 130.031 66.8268 130.721 67.8338C131.365 68.3446 131.536 68.9825 131.128 69.599C131.535 70.0055 131.955 71.1983 131.266 71.8121C131.592 72.2815 131.583 73.2417 130.5 74.1163C130.059 75.4442 129.065 74.9935 129.065 74.9935C129.362 75.4522 129.148 76.9459 127.995 76.4404C127.281 76.1275 127.053 75.4495 127.464 74.8237C127.436 74.3623 127.86 73.8114 128.339 73.6389C128.058 73.3955 128.284 72.446 128.817 71.7506C128.5 70.8025 129.403 70.4401 129.403 70.4401C129.403 70.4401 128.742 69.7995 128.986 69.0681C128.271 68.4997 128.893 67.7134 128.893 67.7134C128.524 67.8899 128.299 67.4165 127.633 67.5155C127.193 67.581 126.838 67.2922 126.715 67.117C126.343 66.657 126.739 66.3053 127.329 66.1822Z" fill="#FD6A4E"/>
<path d="M128.445 72.5558C129.117 72.4248 129.611 73.0065 129.212 73.5922C128.731 74.2983 127.723 74.1525 127.723 74.1525C127.191 73.8623 127.851 72.2429 128.445 72.5558Z" fill="#FFA88F"/>
<path d="M126.627 84.5496C126.627 84.5496 119.536 85.4041 117.404 84.9642C116.064 84.6874 109.927 76.5715 109.927 76.5715L111.025 75.606L117.908 80.9657L126.255 79.2821C129.828 79.1872 130.772 84.0481 126.627 84.5496Z" fill="#FFA88F"/>
<path d="M125.441 85.0965C125.441 85.0965 126.406 83.4717 126.045 81.879C125.684 80.2863 124.622 79.611 124.622 79.611C125.76 78.7057 126.892 77.779 128.127 77.2815C128.127 77.2815 130.303 78.4783 130.844 80.1673C131.906 83.4811 125.441 85.0965 125.441 85.0965Z" fill="#7D6CD9"/>
<path d="M124.942 84.6994C124.942 84.6994 124.946 85.023 125.221 85.1741C125.495 85.3253 125.84 85.1715 125.84 85.1715C125.84 85.1715 127.067 84.1939 126.789 82.069C126.512 79.9441 125.186 79.2995 124.893 79.2714C124.6 79.2433 124.094 79.5335 124.143 79.7074C124.143 79.7074 125.344 80.1808 125.617 82.0102C125.89 83.8409 125.136 84.6834 124.942 84.6994Z" fill="#6D5EBD"/>
<path d="M111.026 75.606C111.026 75.606 110.735 74.4787 109.561 73.3982C109.561 73.3982 109.158 73.4022 109.272 73.8168C109.386 74.2313 109.593 74.5603 109.593 74.5603C109.593 74.5603 106.327 73.3287 106.266 73.4972C106.204 73.6656 108.016 74.6338 108.01 74.7448C108.005 74.8558 106.082 73.9197 106.025 74.1163C105.967 74.3129 107.609 75.2423 107.609 75.3439C107.61 75.4456 106.021 74.5509 105.926 74.6913C105.831 74.8317 106.746 75.6221 107.466 76.0192C107.396 76.3148 106.328 76.2305 106.291 76.3389C106.253 76.4485 108.088 76.9807 110.174 76.8885C112.259 76.7962 111.026 75.606 111.026 75.606Z" fill="#FFA88F"/>
<defs>
<linearGradient id="paint0_linear_603_4256" x1="107.355" y1="6.44819" x2="110.232" y2="33.6433" gradientUnits="userSpaceOnUse">
<stop stop-color="white"/>
<stop offset="0.1657" stop-color="#F0EEFF"/>
<stop offset="0.494" stop-color="#C9C2FF"/>
<stop offset="0.9498" stop-color="#8B7BFF"/>
<stop offset="1" stop-color="#8473FF"/>
</linearGradient>
<linearGradient id="paint1_linear_603_4256" x1="113.007" y1="-11.9879" x2="122.543" y2="33.8676" gradientUnits="userSpaceOnUse">
<stop offset="0.5458" stop-color="#CBBDFF"/>
<stop offset="0.7523" stop-color="#9E8FE0"/>
<stop offset="1" stop-color="#6C5BBD"/>
</linearGradient>
<linearGradient id="paint2_linear_603_4256" x1="107.687" y1="7.57908" x2="135.118" y2="30.6719" gradientUnits="userSpaceOnUse">
<stop offset="0.5324" stop-color="#D9D1FF"/>
<stop offset="1" stop-color="#AD9DFF"/>
</linearGradient>
<linearGradient id="paint3_linear_603_4256" x1="104.988" y1="2.09993" x2="108.789" y2="38.0295" gradientUnits="userSpaceOnUse">
<stop stop-color="white"/>
<stop offset="0.2759" stop-color="#F0EEFF"/>
<stop offset="0.8196" stop-color="#C9C2FF"/>
<stop offset="0.9911" stop-color="#BCB3FF"/>
</linearGradient>
<linearGradient id="paint4_linear_603_4256" x1="138.38" y1="0.701133" x2="112.702" y2="37.8867" gradientUnits="userSpaceOnUse">
<stop offset="0.5324" stop-color="#D9D1FF"/>
<stop offset="0.534" stop-color="#D9D1FF"/>
<stop offset="1" stop-color="#AD9DFF"/>
</linearGradient>
<linearGradient id="paint5_linear_603_4256" x1="113.87" y1="19.8843" x2="115.618" y2="2.99488" gradientUnits="userSpaceOnUse">
<stop offset="0.5324" stop-color="#D9D1FF"/>
<stop offset="1" stop-color="#AD9DFF"/>
</linearGradient>
<linearGradient id="paint6_linear_603_4256" x1="146.25" y1="38.8502" x2="121.637" y2="23.9393" gradientUnits="userSpaceOnUse">
<stop offset="0.0855" stop-color="#D9D1FF"/>
<stop offset="0.0874" stop-color="#D9D1FF"/>
<stop offset="0.6469" stop-color="#AD9DFF"/>
<stop offset="0.7289" stop-color="#B0A0FF"/>
<stop offset="0.7951" stop-color="#B8AAFF"/>
<stop offset="0.8559" stop-color="#C6BBFF"/>
<stop offset="0.9134" stop-color="#DAD3FF"/>
<stop offset="0.9681" stop-color="#F4F2FF"/>
<stop offset="0.9883" stop-color="white"/>
</linearGradient>
<linearGradient id="paint7_linear_603_4256" x1="24.176" y1="3.91822" x2="27.0526" y2="31.1133" gradientUnits="userSpaceOnUse">
<stop stop-color="white"/>
<stop offset="0.1657" stop-color="#F0EEFF"/>
<stop offset="0.494" stop-color="#C9C2FF"/>
<stop offset="0.9498" stop-color="#8B7BFF"/>
<stop offset="1" stop-color="#8473FF"/>
</linearGradient>
<linearGradient id="paint8_linear_603_4256" x1="29.8274" y1="-14.5179" x2="39.3632" y2="31.3377" gradientUnits="userSpaceOnUse">
<stop offset="0.5458" stop-color="#CBBDFF"/>
<stop offset="0.7523" stop-color="#9E8FE0"/>
<stop offset="1" stop-color="#6C5BBD"/>
</linearGradient>
<linearGradient id="paint9_linear_603_4256" x1="24.5079" y1="5.04912" x2="51.938" y2="28.1419" gradientUnits="userSpaceOnUse">
<stop offset="0.5324" stop-color="#D9D1FF"/>
<stop offset="1" stop-color="#AD9DFF"/>
</linearGradient>
<linearGradient id="paint10_linear_603_4256" x1="22.7245" y1="8.18121" x2="25.5798" y2="35.1745" gradientUnits="userSpaceOnUse">
<stop stop-color="white"/>
<stop offset="0.2759" stop-color="#F0EEFF"/>
<stop offset="0.8196" stop-color="#C9C2FF"/>
<stop offset="0.9911" stop-color="#BCB3FF"/>
</linearGradient>
<linearGradient id="paint11_linear_603_4256" x1="55.201" y1="-1.82882" x2="29.5224" y2="35.3567" gradientUnits="userSpaceOnUse">
<stop offset="0.5324" stop-color="#D9D1FF"/>
<stop offset="0.534" stop-color="#D9D1FF"/>
<stop offset="1" stop-color="#AD9DFF"/>
</linearGradient>
<linearGradient id="paint12_linear_603_4256" x1="30.6901" y1="17.3543" x2="32.4386" y2="0.464908" gradientUnits="userSpaceOnUse">
<stop offset="0.5324" stop-color="#D9D1FF"/>
<stop offset="1" stop-color="#AD9DFF"/>
</linearGradient>
<linearGradient id="paint13_linear_603_4256" x1="63.0709" y1="36.3202" x2="38.4577" y2="21.4094" gradientUnits="userSpaceOnUse">
<stop offset="0.0855" stop-color="#D9D1FF"/>
<stop offset="0.0874" stop-color="#D9D1FF"/>
<stop offset="0.6469" stop-color="#AD9DFF"/>
<stop offset="0.7289" stop-color="#B0A0FF"/>
<stop offset="0.7951" stop-color="#B8AAFF"/>
<stop offset="0.8559" stop-color="#C6BBFF"/>
<stop offset="0.9134" stop-color="#DAD3FF"/>
<stop offset="0.9681" stop-color="#F4F2FF"/>
<stop offset="0.9883" stop-color="white"/>
</linearGradient>
<linearGradient id="paint14_linear_603_4256" x1="143.078" y1="32.1448" x2="145.797" y2="57.8499" gradientUnits="userSpaceOnUse">
<stop stop-color="white"/>
<stop offset="0.1657" stop-color="#F0EEFF"/>
<stop offset="0.494" stop-color="#C9C2FF"/>
<stop offset="0.9498" stop-color="#8B7BFF"/>
<stop offset="1" stop-color="#8473FF"/>
</linearGradient>
<linearGradient id="paint15_linear_603_4256" x1="148.42" y1="14.7184" x2="157.433" y2="58.0616" gradientUnits="userSpaceOnUse">
<stop offset="0.5458" stop-color="#CBBDFF"/>
<stop offset="0.7523" stop-color="#9E8FE0"/>
<stop offset="1" stop-color="#6C5BBD"/>
</linearGradient>
<linearGradient id="paint16_linear_603_4256" x1="143.392" y1="33.2136" x2="169.319" y2="55.0412" gradientUnits="userSpaceOnUse">
<stop offset="0.5324" stop-color="#D9D1FF"/>
<stop offset="1" stop-color="#AD9DFF"/>
</linearGradient>
<linearGradient id="paint17_linear_603_4256" x1="140.84" y1="28.0345" x2="144.433" y2="61.9955" gradientUnits="userSpaceOnUse">
<stop stop-color="white"/>
<stop offset="0.2759" stop-color="#F0EEFF"/>
<stop offset="0.8196" stop-color="#C9C2FF"/>
<stop offset="0.9911" stop-color="#BCB3FF"/>
</linearGradient>
<linearGradient id="paint18_linear_603_4256" x1="164.989" y1="37.4368" x2="149.049" y2="60.5193" gradientUnits="userSpaceOnUse">
<stop offset="0.5324" stop-color="#D9D1FF"/>
<stop offset="0.534" stop-color="#D9D1FF"/>
<stop offset="1" stop-color="#AD9DFF"/>
</linearGradient>
<linearGradient id="paint19_linear_603_4256" x1="148.559" y1="51.3718" x2="151.221" y2="25.6606" gradientUnits="userSpaceOnUse">
<stop offset="0.5324" stop-color="#D9D1FF"/>
<stop offset="1" stop-color="#AD9DFF"/>
</linearGradient>
<linearGradient id="paint20_linear_603_4256" x1="62.4496" y1="27.1113" x2="65.3262" y2="54.3064" gradientUnits="userSpaceOnUse">
<stop stop-color="white"/>
<stop offset="0.1657" stop-color="#F0EEFF"/>
<stop offset="0.494" stop-color="#C9C2FF"/>
<stop offset="0.9498" stop-color="#8B7BFF"/>
<stop offset="1" stop-color="#8473FF"/>
</linearGradient>
<linearGradient id="paint21_linear_603_4256" x1="68.101" y1="8.67523" x2="77.6368" y2="54.5308" gradientUnits="userSpaceOnUse">
<stop offset="0.5458" stop-color="#CBBDFF"/>
<stop offset="0.7523" stop-color="#9E8FE0"/>
<stop offset="1" stop-color="#6C5BBD"/>
</linearGradient>
<linearGradient id="paint22_linear_603_4256" x1="62.7817" y1="28.2422" x2="90.2117" y2="51.335" gradientUnits="userSpaceOnUse">
<stop offset="0.5324" stop-color="#D9D1FF"/>
<stop offset="1" stop-color="#AD9DFF"/>
</linearGradient>
<linearGradient id="paint23_linear_603_4256" x1="60.0822" y1="22.7632" x2="63.8828" y2="58.6927" gradientUnits="userSpaceOnUse">
<stop stop-color="white"/>
<stop offset="0.2759" stop-color="#F0EEFF"/>
<stop offset="0.8196" stop-color="#C9C2FF"/>
<stop offset="0.9911" stop-color="#BCB3FF"/>
</linearGradient>
<linearGradient id="paint24_linear_603_4256" x1="93.4747" y1="21.3641" x2="67.7961" y2="58.5496" gradientUnits="userSpaceOnUse">
<stop offset="0.5324" stop-color="#D9D1FF"/>
<stop offset="0.534" stop-color="#D9D1FF"/>
<stop offset="1" stop-color="#AD9DFF"/>
</linearGradient>
<linearGradient id="paint25_linear_603_4256" x1="68.9638" y1="40.5473" x2="70.7123" y2="23.6579" gradientUnits="userSpaceOnUse">
<stop offset="0.5324" stop-color="#D9D1FF"/>
<stop offset="1" stop-color="#AD9DFF"/>
</linearGradient>
<linearGradient id="paint26_linear_603_4256" x1="100.644" y1="59.4611" x2="76.0308" y2="44.5503" gradientUnits="userSpaceOnUse">
<stop offset="0.0855" stop-color="#D9D1FF"/>
<stop offset="0.0874" stop-color="#D9D1FF"/>
<stop offset="0.6469" stop-color="#AD9DFF"/>
<stop offset="0.7289" stop-color="#B0A0FF"/>
<stop offset="0.7951" stop-color="#B8AAFF"/>
<stop offset="0.8559" stop-color="#C6BBFF"/>
<stop offset="0.9134" stop-color="#DAD3FF"/>
<stop offset="0.9681" stop-color="#F4F2FF"/>
<stop offset="0.9883" stop-color="white"/>
</linearGradient>
<linearGradient id="paint27_linear_603_4256" x1="39.2241" y1="59.4859" x2="63.8078" y2="44.5266" gradientUnits="userSpaceOnUse">
<stop offset="0.0855" stop-color="#D9D1FF"/>
<stop offset="0.0874" stop-color="#D9D1FF"/>
<stop offset="0.6469" stop-color="#AD9DFF"/>
<stop offset="0.7289" stop-color="#B0A0FF"/>
<stop offset="0.7951" stop-color="#B8AAFF"/>
<stop offset="0.8559" stop-color="#C6BBFF"/>
<stop offset="0.9134" stop-color="#DAD3FF"/>
<stop offset="0.9681" stop-color="#F4F2FF"/>
<stop offset="0.9883" stop-color="white"/>
</linearGradient>
<linearGradient id="paint28_linear_603_4256" x1="25.1756" y1="47.5009" x2="28.0522" y2="74.696" gradientUnits="userSpaceOnUse">
<stop stop-color="white"/>
<stop offset="0.1657" stop-color="#F0EEFF"/>
<stop offset="0.494" stop-color="#C9C2FF"/>
<stop offset="0.9498" stop-color="#8B7BFF"/>
<stop offset="1" stop-color="#8473FF"/>
</linearGradient>
<linearGradient id="paint29_linear_603_4256" x1="30.827" y1="29.0648" x2="40.3627" y2="74.9203" gradientUnits="userSpaceOnUse">
<stop offset="0.5458" stop-color="#CBBDFF"/>
<stop offset="0.7523" stop-color="#9E8FE0"/>
<stop offset="1" stop-color="#6C5BBD"/>
</linearGradient>
<linearGradient id="paint30_linear_603_4256" x1="25.5076" y1="48.6318" x2="52.9377" y2="71.7245" gradientUnits="userSpaceOnUse">
<stop offset="0.5324" stop-color="#D9D1FF"/>
<stop offset="1" stop-color="#AD9DFF"/>
</linearGradient>
<linearGradient id="paint31_linear_603_4256" x1="22.8082" y1="43.1527" x2="26.6087" y2="79.0823" gradientUnits="userSpaceOnUse">
<stop stop-color="white"/>
<stop offset="0.2759" stop-color="#F0EEFF"/>
<stop offset="0.8196" stop-color="#C9C2FF"/>
<stop offset="0.9911" stop-color="#BCB3FF"/>
</linearGradient>
<linearGradient id="paint32_linear_603_4256" x1="56.2006" y1="41.7536" x2="30.5221" y2="78.9391" gradientUnits="userSpaceOnUse">
<stop offset="0.5324" stop-color="#D9D1FF"/>
<stop offset="0.534" stop-color="#D9D1FF"/>
<stop offset="1" stop-color="#AD9DFF"/>
</linearGradient>
<linearGradient id="paint33_linear_603_4256" x1="30.9741" y1="67.8423" x2="33.7901" y2="40.6408" gradientUnits="userSpaceOnUse">
<stop offset="0.5324" stop-color="#D9D1FF"/>
<stop offset="1" stop-color="#AD9DFF"/>
</linearGradient>
<linearGradient id="paint34_linear_603_4256" x1="107.135" y1="69.0732" x2="143.731" y2="48.4895" gradientUnits="userSpaceOnUse">
<stop offset="0.0855" stop-color="#D9D1FF"/>
<stop offset="0.0874" stop-color="#D9D1FF"/>
<stop offset="0.6469" stop-color="#AD9DFF"/>
<stop offset="0.7289" stop-color="#B0A0FF"/>
<stop offset="0.7951" stop-color="#B8AAFF"/>
<stop offset="0.8559" stop-color="#C6BBFF"/>
<stop offset="0.9134" stop-color="#DAD3FF"/>
<stop offset="0.9681" stop-color="#F4F2FF"/>
<stop offset="0.9883" stop-color="white"/>
</linearGradient>
<linearGradient id="paint35_linear_603_4256" x1="96.6069" y1="53.2084" x2="99.4142" y2="79.7484" gradientUnits="userSpaceOnUse">
<stop stop-color="white"/>
<stop offset="0.1657" stop-color="#F0EEFF"/>
<stop offset="0.494" stop-color="#C9C2FF"/>
<stop offset="0.9498" stop-color="#8B7BFF"/>
<stop offset="1" stop-color="#8473FF"/>
</linearGradient>
<linearGradient id="paint36_linear_603_4256" x1="102.122" y1="35.2164" x2="111.428" y2="79.9673" gradientUnits="userSpaceOnUse">
<stop offset="0.5458" stop-color="#CBBDFF"/>
<stop offset="0.7523" stop-color="#9E8FE0"/>
<stop offset="1" stop-color="#6C5BBD"/>
</linearGradient>
<linearGradient id="paint37_linear_603_4256" x1="94.682" y1="50.3617" x2="130.196" y2="80.2599" gradientUnits="userSpaceOnUse">
<stop offset="0.5324" stop-color="#D9D1FF"/>
<stop offset="1" stop-color="#AD9DFF"/>
</linearGradient>
<linearGradient id="paint38_linear_603_4256" x1="94.2965" y1="48.9649" x2="98.0055" y2="84.0289" gradientUnits="userSpaceOnUse">
<stop stop-color="white"/>
<stop offset="0.2759" stop-color="#F0EEFF"/>
<stop offset="0.8196" stop-color="#C9C2FF"/>
<stop offset="0.9911" stop-color="#BCB3FF"/>
</linearGradient>
<linearGradient id="paint39_linear_603_4256" x1="126.884" y1="47.5995" x2="101.825" y2="83.8893" gradientUnits="userSpaceOnUse">
<stop offset="0.5324" stop-color="#D9D1FF"/>
<stop offset="0.534" stop-color="#D9D1FF"/>
<stop offset="1" stop-color="#AD9DFF"/>
</linearGradient>
<linearGradient id="paint40_linear_603_4256" x1="102.956" y1="66.3969" x2="104.678" y2="49.7617" gradientUnits="userSpaceOnUse">
<stop offset="0.5324" stop-color="#D9D1FF"/>
<stop offset="1" stop-color="#AD9DFF"/>
</linearGradient>
</defs>
</svg>
