<svg width="162" height="49" viewBox="0 0 162 49" fill="none" xmlns="http://www.w3.org/2000/svg">
<path d="M23.9989 16.3897C18.6404 16.7561 13.9688 19.5956 11.1293 23.8092L6.77832 16.3897H23.9989ZM0.366396 15.2447C0.137398 14.8325 0 14.3745 0 13.9165V36.7246C0 38.0528 1.05339 39.1062 2.38157 39.1062H14.2436L0.366396 15.2447Z" fill="url(#paint0_linear_540_5098)"/>
<path d="M35.2658 16.3895L26.2891 31.7323C27.4799 29.3965 28.1669 26.7401 28.1669 23.9464C28.1669 21.2442 27.5257 18.6794 26.3807 16.3895H35.2658ZM39.4794 11.3973C39.8916 11.3973 40.3038 11.4889 40.6702 11.7179L21.068 0.313832C19.923 -0.327361 18.5032 0.0390357 17.8162 1.18402L11.8623 11.3973H39.4794Z" fill="url(#paint1_linear_540_5098)"/>
<path d="M20.9763 40.8005L12.0454 25.4118C14.885 29.9002 19.7397 32.9688 25.3731 33.2894L20.9763 40.8005ZM42.9601 33.3352L37.1435 23.0303L23.2205 46.8918C22.9915 47.2582 22.7167 47.533 22.3961 47.762L42.1357 36.5869C43.2349 35.9457 43.6013 34.4801 42.9601 33.3352Z" fill="url(#paint2_linear_540_5098)"/>
<path d="M41.7232 12.6798C41.4942 12.3134 41.1736 11.9929 40.8072 11.7639L40.7156 11.7181C40.3492 11.5349 39.937 11.3975 39.5248 11.3975H11.8619H2.61042C1.69444 11.3975 0.824245 11.9013 0.36625 12.6798C0.137253 13.0462 0.0456543 13.5042 0.0456543 13.9164C0.0456543 14.3744 0.137253 14.8324 0.41205 15.2446L14.2893 39.1061L18.7776 46.8463C19.2356 47.6249 20.06 48.1286 20.976 48.1286C21.4798 48.1286 21.9378 47.9912 22.35 47.7165C22.6706 47.4875 22.9912 47.2127 23.1744 46.8463L37.0974 22.9847L41.6774 15.1988C42.1354 14.466 42.1812 13.5042 41.7232 12.6798ZM26.2888 31.7324C26.014 32.282 25.6934 32.7858 25.3728 33.2896L20.976 40.8007L12.0451 25.4121C11.8161 25.0457 11.1291 23.8091 11.1291 23.8091L6.82398 16.3896H23.9988C24.411 16.3438 26.3804 16.3896 26.3804 16.3896H35.2197L26.2888 31.7324Z" fill="white"/>
<path d="M64.1724 33.9567L61.3329 38.3077H61.1497L58.3101 33.9567V40.5518H57.7605V33.1323C58.0353 33.1323 58.1727 33.1323 58.4475 33.1323L61.2871 37.4375L64.0808 33.1323H64.7678V40.5518H64.2182V33.9567H64.1724Z" fill="white"/>
<path d="M78.645 40.5518L77.8206 38.7199H73.378L72.5536 40.5518H71.9583L75.3016 33.1323H75.9428L79.2862 40.5518H78.645ZM77.5916 38.1703L75.6222 33.6361L73.6528 38.1703H77.5916Z" fill="white"/>
<path d="M91.2399 34.5523C90.6904 33.6821 89.8202 33.5447 88.9958 33.5447C88.1256 33.5447 86.7516 33.8653 86.7516 35.0561C86.7516 36.0179 87.7592 36.2011 89.0416 36.4759C90.4614 36.7507 91.9727 37.0255 91.9727 38.6285C91.9727 40.323 90.2782 40.6894 89.0416 40.6894C87.8966 40.6894 86.5684 40.2314 86.0188 39.0864L86.5226 38.8116C86.9806 39.7276 88.1256 40.1398 89.0416 40.1398C89.9576 40.1398 91.4231 39.865 91.4231 38.5827C91.4231 37.4835 90.1866 37.2087 88.9958 36.9797C87.6218 36.7049 86.2478 36.4301 86.2478 35.0561C86.202 33.4989 87.8508 32.9951 89.0874 32.9951C90.1408 32.9951 91.0567 33.1783 91.7895 34.2775L91.2399 34.5523Z" fill="white"/>
<path d="M101.636 33.6361H98.9343V33.1323H104.888V33.6361H102.186V40.5518H101.636V33.6361Z" fill="white"/>
<path d="M112.857 36.5214H117.208V37.0252H112.857V39.9563H117.529V40.5059H112.262V33.0864H117.437V33.636H112.857V36.5214Z" fill="white"/>
<path d="M131.085 40.5518H130.352L127.788 37.7581H125.772V40.5518H125.223V33.1323C126.322 33.1323 127.375 33.1323 128.475 33.1323C130.078 33.1323 130.902 34.2773 130.902 35.4223C130.902 36.6131 130.123 37.7123 128.475 37.7123L131.085 40.5518ZM125.772 37.1627H128.383C129.665 37.1627 130.261 36.4299 130.261 35.3765C130.261 34.5063 129.665 33.5903 128.429 33.5903H125.727V37.1627H125.772Z" fill="white"/>
<path d="M153.573 40.5518L152.749 38.7199H148.306L147.482 40.5518H146.886L150.23 33.1323H150.871L154.214 40.5518H153.573ZM152.565 38.1703L150.596 33.6361L148.627 38.1703H152.565Z" fill="white"/>
<path d="M161.405 40.5518V33.1323H161.954V40.5518H161.405Z" fill="white"/>
<path d="M62.2032 11.2866V28.9652H57.9896V11.2866H51.9441V7.43945H68.2945V11.2866H62.2032Z" fill="white"/>
<path d="M96.8277 28.9652H88.2632V7.43945H96.4613C98.8887 7.43945 100.721 7.94325 102.003 8.99664C103.285 10.05 103.881 11.424 103.881 13.1186C103.881 13.8056 103.743 14.4468 103.514 14.9964C103.285 15.546 103.011 15.9582 102.69 16.2788C102.369 16.5536 102.049 16.8283 101.728 17.0115C101.408 17.1947 101.133 17.3321 100.904 17.4237L100.537 17.5153V17.7443C100.629 17.7443 100.766 17.7901 100.995 17.8359C101.179 17.8817 101.499 18.0191 101.957 18.2481C102.415 18.4771 102.827 18.7977 103.194 19.1183C103.56 19.4847 103.881 19.9885 104.156 20.6297C104.43 21.2709 104.614 22.0495 104.614 22.8739C104.614 24.6601 103.927 26.0798 102.598 27.2248C101.27 28.4156 99.3467 28.9652 96.8277 28.9652ZM96.4613 11.2866H92.4767V16.0498H96.4613C98.4765 16.0498 99.4841 15.2712 99.4841 13.6682C99.4841 12.0652 98.4765 11.2866 96.4613 11.2866ZM99.3925 24.4311C99.9421 23.9273 100.217 23.2861 100.217 22.4617C100.217 21.6373 99.9421 20.9961 99.3467 20.4923C98.7971 19.9885 97.9269 19.7595 96.8277 19.7595H92.4767V25.1181H96.8735C97.9727 25.1181 98.8429 24.8891 99.3925 24.4311Z" fill="white"/>
<path d="M113.819 24.2021C114.598 25.1181 115.697 25.6218 117.071 25.6218C118.445 25.6218 119.544 25.1639 120.323 24.2021C121.101 23.2861 121.514 21.8663 121.514 20.0801V7.43945H125.727V20.0801C125.727 23.0113 124.949 25.3013 123.391 26.9958C121.834 28.6446 119.727 29.469 117.117 29.469C114.46 29.469 112.354 28.6446 110.796 26.9958C109.239 25.3471 108.461 23.0113 108.461 20.0801V7.43945H112.674V20.0801C112.628 21.8663 112.995 23.2403 113.819 24.2021Z" fill="white"/>
<path d="M138.963 11.2866V28.9652H134.75V11.2866H128.704V7.43945H145.055V11.2866H138.963Z" fill="white"/>
<path d="M152.245 11.2866V16.233H160.305V20.0801H152.245V25.1181H162V28.9652H148.031V7.43945H162V11.2866H152.245Z" fill="white"/>
<path d="M84.0952 7.43945H70.7676V11.2866H76.7215C77.8665 11.2866 78.6451 11.195 79.1031 10.966L79.0573 11.2408L78.9199 11.3782C78.8283 11.4698 78.5993 11.6072 78.3245 11.882C78.0039 12.1568 77.6833 12.4316 77.3169 12.8438L73.2407 16.6451L74.3399 19.3931H74.3857L84.0494 11.1034V7.43945H84.0952Z" fill="white"/>
<path d="M81.393 16.9653L76.813 18.9805C77.8206 19.0263 78.645 19.3469 79.2404 19.8965C79.8816 20.5377 80.2022 21.3163 80.2022 22.3239C80.2022 23.2857 79.8816 24.0643 79.2404 24.7054C78.5992 25.3008 77.729 25.6214 76.6298 25.6214C76.0344 25.6214 75.4848 25.5298 74.9352 25.3924C74.3856 25.2092 73.9277 25.026 73.5613 24.8428C73.1949 24.6596 72.8743 24.3848 72.5537 24.1101C72.2331 23.8353 72.0499 23.6521 71.9583 23.5605C71.8667 23.4689 71.7751 23.3773 71.7293 23.3315L69.4851 26.2168L69.8057 26.5374C69.9889 26.7664 70.2637 27.0412 70.6759 27.3618C71.0881 27.6824 71.5919 28.003 72.1415 28.3236C72.6911 28.6442 73.4239 28.919 74.2941 29.148C75.1642 29.377 76.0802 29.4686 77.042 29.4686C79.3778 29.4686 81.2098 28.8274 82.6296 27.4992C84.0035 26.171 84.7363 24.5222 84.7363 22.4613C84.7363 20.6293 84.1409 19.1637 82.996 18.0187C82.4464 17.5607 81.9426 17.2401 81.393 16.9653Z" fill="white"/>
<defs>
<linearGradient id="paint0_linear_540_5098" x1="15.9657" y1="11.7794" x2="1.33844" y2="36.2407" gradientUnits="userSpaceOnUse">
<stop stop-color="white"/>
<stop offset="1" stop-color="#0500FD"/>
</linearGradient>
<linearGradient id="paint1_linear_540_5098" x1="33.3352" y1="29.2347" x2="21.8483" y2="0.476101" gradientUnits="userSpaceOnUse">
<stop offset="1.06556e-07" stop-color="white"/>
<stop offset="1" stop-color="#0500FD"/>
</linearGradient>
<linearGradient id="paint2_linear_540_5098" x1="10.8795" y1="31.2351" x2="42.1999" y2="38.1769" gradientUnits="userSpaceOnUse">
<stop stop-color="white"/>
<stop offset="1" stop-color="#0500FD"/>
</linearGradient>
</defs>
</svg>
